<svg viewBox="0 0 210 297" xmlns:inkscape="http://www.inkscape.org/namespaces/inkscape" xmlns="http://www.w3.org/2000/svg">
	<path
		d="m 92.250417,265.91109 c -23.868356,-1.31302 -39.795204,-4.36088 -46.629976,-8.9234 -1.527893,-1.01993 -1.517106,-0.99703 -1.335139,-2.83405 0.08995,-0.90804 0.310537,-3.35084 0.490201,-5.42844 0.179664,-2.0776 0.763898,-8.64093 1.298297,-14.58517 0.5344,-5.94425 1.170809,-13.26307 1.414244,-16.26404 0.768156,-9.46957 1.705458,-21.44927 2.044229,-26.1274 0.939366,-12.97182 1.035416,-30.71113 0.227258,-41.97171 -0.932253,-12.98967 -1.875145,-22.49406 -2.925099,-29.48513 -0.741175,-4.93508 -0.618528,-4.78173 -1.693781,-2.11775 -1.255372,3.11024 -1.684471,4.38693 -4.758491,14.15788 l -0.684832,2.17677 -1.549365,-0.14164 c -8.249124,-0.75417 -20.351201,-4.27526 -28.8321164,-8.38869 -2.6488481,-1.28475 -5.2798286,-2.7668 -5.5615574,-3.13287 -0.1174691,-0.15263 1.3873665,-5.55533 3.9846531,-14.30578 2.2953737,-7.73329 5.1947457,-17.790763 6.4430507,-22.349941 2.637869,-9.634279 3.858255,-13.626903 5.192892,-16.989109 2.571238,-6.477435 5.407069,-10.031879 11.584617,-14.520212 3.130186,-2.274254 2.843988,-2.128258 9.198224,-4.692219 14.549836,-5.870919 28.052006,-11.577983 30.41182,-12.854393 0.769744,-0.416351 2.371351,-1.511368 3.559128,-2.433373 1.187776,-0.922004 2.591132,-1.943603 3.118569,-2.270219 1.139761,-0.705799 1.758929,-0.734335 6.15928,-0.283869 7.640919,0.782204 12.73703,1.019917 21.894027,1.021271 9.14645,0.0014 10.6128,-0.06523 20.84266,-0.946435 4.35647,-0.375268 5.58371,-0.418966 6.25543,-0.222734 0.46847,0.136855 2.02045,1.152698 3.53198,2.311845 1.48297,1.137246 3.23018,2.358474 3.88269,2.713841 2.53995,1.383302 13.99467,6.255756 29.29401,12.460689 7.24451,2.938144 7.8043,3.220885 10.93492,5.523048 8.67125,6.37657 10.61261,10.081149 16.28567,31.07694 1.55312,5.748024 3.01049,10.774169 9.0739,31.29393 0.82262,2.78388 1.49567,5.16112 1.49567,5.28275 0,0.48906 -5.76223,3.53629 -9.92242,5.24727 -3.06245,1.2595 -8.33789,3.04005 -11.86376,4.00423 -5.34334,1.46118 -13.7654,2.89445 -14.2221,2.42033 -0.10114,-0.10499 -0.68972,-1.84353 -1.30797,-3.86342 -1.45416,-4.7509 -3.69004,-11.26968 -4.49524,-13.10599 -0.74524,-1.69958 -0.63099,-1.95976 -1.42387,3.24264 -1.12589,7.38745 -2.40828,21.15492 -3.17648,34.10201 -0.33262,5.60596 -0.32824,19.66141 0.009,27.28162 0.27764,6.28273 1.78112,26.93817 2.83106,38.89442 0.35135,4.00096 1.12896,12.84621 1.72803,19.65612 0.59907,6.80991 1.14782,13.05232 1.21943,13.87202 l 0.13022,1.49035 -1.05355,0.78538 c -4.55231,3.39358 -15.66884,6.26754 -30.8776,7.98279 -8.95976,1.01049 -13.08861,1.20108 -27.22985,1.25693 -7.533483,0.0298 -14.279648,0.0221 -14.991473,-0.0171 z"/>
</svg>
